<svg xmlns="http://www.w3.org/2000/svg" viewBox="0 0 1200 800" role="img" aria-labelledby="title desc">
  <title id="title">Placeholder inmobiliario Madrid Salamanca fachada clásica</title>
  <desc id="desc">Ilustración premium de un edificio residencial clásico con balcones en un entorno urbano elegante.</desc>
  <defs>
    <linearGradient id="bg" x1="0" y1="0" x2="1" y2="1">
      <stop offset="0%" stop-color="#f4efe8"/>
      <stop offset="100%" stop-color="#e6ddd1"/>
    </linearGradient>
  </defs>
  <rect width="1200" height="800" fill="url(#bg)"/>
  <rect x="0" y="560" width="1200" height="240" fill="#d7cec3"/>
  <rect x="280" y="170" width="640" height="430" rx="8" fill="#d2c3b3"/>
  <rect x="320" y="210" width="560" height="350" fill="#efe6db"/>
  <rect x="540" y="460" width="120" height="100" fill="#6b5a4c"/>
  <g fill="#8e7766">
    <rect x="360" y="250" width="90" height="110"/>
    <rect x="490" y="250" width="90" height="110"/>
    <rect x="620" y="250" width="90" height="110"/>
    <rect x="750" y="250" width="90" height="110"/>
    <rect x="360" y="390" width="90" height="110"/>
    <rect x="490" y="390" width="90" height="110"/>
    <rect x="620" y="390" width="90" height="110"/>
    <rect x="750" y="390" width="90" height="110"/>
  </g>
  <g fill="#2f3d4c">
    <rect x="372" y="262" width="66" height="86"/>
    <rect x="502" y="262" width="66" height="86"/>
    <rect x="632" y="262" width="66" height="86"/>
    <rect x="762" y="262" width="66" height="86"/>
    <rect x="372" y="402" width="66" height="86"/>
    <rect x="502" y="402" width="66" height="86"/>
    <rect x="632" y="402" width="66" height="86"/>
    <rect x="762" y="402" width="66" height="86"/>
  </g>
  <g stroke="#5e4b3f" stroke-width="6">
    <line x1="360" y1="362" x2="450" y2="362"/>
    <line x1="490" y1="362" x2="580" y2="362"/>
    <line x1="620" y1="362" x2="710" y2="362"/>
    <line x1="750" y1="362" x2="840" y2="362"/>
  </g>
  <text x="80" y="110" fill="#5f5247" font-family="Georgia, serif" font-size="48">Madrid · Barrio de Salamanca</text>
  <text x="80" y="165" fill="#7a6d61" font-family="Arial, sans-serif" font-size="26">Residencial prime · fachada clásica</text>
</svg>
